<?xml version="1.0" encoding="UTF-8" standalone="no"?>
<!DOCTYPE svg PUBLIC "-//W3C//DTD SVG 1.1//EN"
 "http://www.w3.org/Graphics/SVG/1.1/DTD/svg11.dtd">
<!-- Generated by graphviz version 2.40.1 (20161225.0304)
 -->
<!-- Title: G Pages: 1 -->
<svg width="361pt" height="374pt"
 viewBox="0.00 0.00 360.58 374.00" xmlns="http://www.w3.org/2000/svg" xmlns:xlink="http://www.w3.org/1999/xlink">
<g id="graph0" class="graph" transform="scale(1 1) rotate(0) translate(4 370)">
<title>G</title>
<polygon fill="#ffffff" stroke="transparent" points="-4,4 -4,-370 356.5815,-370 356.5815,4 -4,4"/>
<!-- A0 -->
<g id="node1" class="node">
<title>A0</title>
<polygon fill="#fff8dc" stroke="#000000" points="105.8605,-366 .0465,-366 .0465,-330 111.8605,-330 111.8605,-360 105.8605,-366"/>
<polyline fill="none" stroke="#000000" points="105.8605,-366 105.8605,-360 "/>
<polyline fill="none" stroke="#000000" points="111.8605,-360 105.8605,-360 "/>
<text text-anchor="middle" x="55.9535" y="-351" font-family="Helvetica,sans-Serif" font-size="10.00" fill="#000000">Venus sealer class</text>
<text text-anchor="middle" x="55.9535" y="-339" font-family="Helvetica,sans-Serif" font-size="10.00" fill="#000000">diagram</text>
</g>
<!-- A1 -->
<g id="node2" class="node">
<title>A1</title>
<polygon fill="none" stroke="#000000" points="225.7537,-366 130.1533,-366 130.1533,-330 225.7537,-330 225.7537,-366"/>
<text text-anchor="middle" x="177.9535" y="-345" font-family="Helvetica,sans-Serif" font-size="10.00" fill="#000000">VenusGateway</text>
</g>
<!-- A2 -->
<g id="node3" class="node">
<title>A2</title>
<polygon fill="none" stroke="#000000" points="219.5256,-280 136.3814,-280 136.3814,-244 219.5256,-244 219.5256,-280"/>
<text text-anchor="middle" x="177.9535" y="-259" font-family="Helvetica,sans-Serif" font-size="10.00" fill="#000000">GatewayAPI</text>
</g>
<!-- A1&#45;&gt;A2 -->
<g id="edge1" class="edge">
<title>A1&#45;&gt;A2</title>
<path fill="none" stroke="#000000" d="M177.9535,-317.5205C177.9535,-305.0493 177.9535,-291.0388 177.9535,-280.2121"/>
<polygon fill="#000000" stroke="#000000" points="177.9536,-317.7616 181.9535,-323.7616 177.9535,-329.7616 173.9535,-323.7616 177.9536,-317.7616"/>
</g>
<!-- A3 -->
<g id="node4" class="node">
<title>A3</title>
<polygon fill="none" stroke="#000000" points="4.9535,-162 4.9535,-194 107.9535,-194 107.9535,-162 4.9535,-162"/>
<text text-anchor="start" x="15.611" y="-175" font-family="Helvetica,sans-Serif" font-size="10.00" fill="#000000">ProofEventStream</text>
<polygon fill="none" stroke="#000000" points="4.9535,-118 4.9535,-162 107.9535,-162 107.9535,-118 4.9535,-118"/>
<text text-anchor="start" x="14.781" y="-143" font-family="Helvetica,sans-Serif" font-size="10.00" fill="#000000">minerConnections,</text>
<text text-anchor="start" x="33.9485" y="-131" font-family="Helvetica,sans-Serif" font-size="10.00" fill="#000000">authClient</text>
<polygon fill="none" stroke="#000000" points="4.9535,-86 4.9535,-118 107.9535,-118 107.9535,-86 4.9535,-86"/>
<text text-anchor="start" x="24.2245" y="-99" font-family="Helvetica,sans-Serif" font-size="10.00" fill="#000000">ComputeProof</text>
</g>
<!-- A2&#45;&gt;A3 -->
<g id="edge2" class="edge">
<title>A2&#45;&gt;A3</title>
<path fill="none" stroke="#000000" d="M151.2,-235.2465C140.385,-224.4315 127.4454,-211.4919 114.6418,-198.6883"/>
<polygon fill="none" stroke="#000000" points="151.4667,-235.5132 158.5378,-236.9274 159.952,-243.9985 152.8809,-242.5843 151.4667,-235.5132"/>
<polygon fill="#000000" stroke="#000000" points="107.5571,-191.6036 117.8102,-195.4927 111.0926,-195.1391 114.6282,-198.6747 114.6282,-198.6747 114.6282,-198.6747 111.0926,-195.1391 111.4462,-201.8567 107.5571,-191.6036 107.5571,-191.6036"/>
</g>
<!-- A4 -->
<g id="node5" class="node">
<title>A4</title>
<polygon fill="none" stroke="#000000" points="125.9535,-162 125.9535,-194 230.9535,-194 230.9535,-162 125.9535,-162"/>
<text text-anchor="start" x="135.6715" y="-175" font-family="Helvetica,sans-Serif" font-size="10.00" fill="#000000">WalletEventStream</text>
<polygon fill="none" stroke="#000000" points="125.9535,-118 125.9535,-162 230.9535,-162 230.9535,-118 125.9535,-118"/>
<text text-anchor="start" x="136.781" y="-143" font-family="Helvetica,sans-Serif" font-size="10.00" fill="#000000">minerConnections,</text>
<text text-anchor="start" x="155.9485" y="-131" font-family="Helvetica,sans-Serif" font-size="10.00" fill="#000000">authClient</text>
<polygon fill="none" stroke="#000000" points="125.9535,-86 125.9535,-118 230.9535,-118 230.9535,-86 125.9535,-86"/>
<text text-anchor="start" x="146.2245" y="-99" font-family="Helvetica,sans-Serif" font-size="10.00" fill="#000000">ComputeProof</text>
</g>
<!-- A2&#45;&gt;A4 -->
<g id="edge3" class="edge">
<title>A2&#45;&gt;A4</title>
<path fill="none" stroke="#000000" d="M177.9535,-231.6461C177.9535,-223.1875 177.9535,-213.6669 177.9535,-204.045"/>
<polygon fill="none" stroke="#000000" points="177.9536,-231.9985 181.9535,-237.9985 177.9535,-243.9985 173.9535,-237.9984 177.9536,-231.9985"/>
<polygon fill="#000000" stroke="#000000" points="177.9535,-194.0215 182.4536,-204.0215 177.9535,-199.0215 177.9536,-204.0215 177.9536,-204.0215 177.9536,-204.0215 177.9535,-199.0215 173.4536,-204.0216 177.9535,-194.0215 177.9535,-194.0215"/>
</g>
<!-- A5 -->
<g id="node6" class="node">
<title>A5</title>
<polygon fill="none" stroke="#000000" points="248.9535,-156 248.9535,-188 351.9535,-188 351.9535,-156 248.9535,-156"/>
<text text-anchor="start" x="283.777" y="-169" font-family="Helvetica,sans-Serif" font-size="10.00" fill="#000000">auth.go</text>
<polygon fill="none" stroke="#000000" points="248.9535,-124 248.9535,-156 351.9535,-156 351.9535,-124 248.9535,-124"/>
<text text-anchor="start" x="284.8945" y="-137" font-family="Helvetica,sans-Serif" font-size="10.00" fill="#000000">seckey</text>
<polygon fill="none" stroke="#000000" points="248.9535,-92 248.9535,-124 351.9535,-124 351.9535,-92 248.9535,-92"/>
<text text-anchor="start" x="258.7805" y="-105" font-family="Helvetica,sans-Serif" font-size="10.00" fill="#000000">MakeToken, Verify</text>
</g>
<!-- A2&#45;&gt;A5 -->
<g id="edge4" class="edge">
<title>A2&#45;&gt;A5</title>
<path fill="none" stroke="#000000" stroke-dasharray="5,2" d="M195.955,-243.9985C208.8303,-231.1232 226.9055,-213.048 244.3817,-195.5718"/>
<polygon fill="#000000" stroke="#000000" points="251.818,-188.1355 247.9289,-198.3886 248.2824,-191.6711 244.7469,-195.2066 244.7469,-195.2066 244.7469,-195.2066 248.2824,-191.6711 241.5649,-192.0246 251.818,-188.1355 251.818,-188.1355"/>
<text text-anchor="middle" x="202.7954" y="-222.2046" font-family="Helvetica,sans-Serif" font-size="10.00" fill="#000000">uses</text>
</g>
<!-- A6 -->
<g id="node7" class="node">
<title>A6</title>
<polygon fill="none" stroke="#000000" points="352.7098,-36 247.1972,-36 247.1972,0 352.7098,0 352.7098,-36"/>
<text text-anchor="middle" x="299.9535" y="-15" font-family="Helvetica,sans-Serif" font-size="10.00" fill="#000000">vanus&#45;auth/auth2</text>
</g>
<!-- A5&#45;&gt;A6 -->
<g id="edge5" class="edge">
<title>A5&#45;&gt;A6</title>
<path fill="none" stroke="#000000" stroke-dasharray="5,2" d="M299.9535,-91.7824C299.9535,-76.3314 299.9535,-59.7348 299.9535,-46.2027"/>
<polygon fill="#000000" stroke="#000000" points="299.9535,-36.0877 304.4536,-46.0877 299.9535,-41.0877 299.9536,-46.0877 299.9536,-46.0877 299.9536,-46.0877 299.9535,-41.0877 295.4536,-46.0877 299.9535,-36.0877 299.9535,-36.0877"/>
<text text-anchor="middle" x="291.5011" y="-70.6562" font-family="Helvetica,sans-Serif" font-size="10.00" fill="#000000">uses</text>
</g>
</g>
</svg>
